Coordinates
version=1
nRows=7
nColumns=63
inDegrees=yes

Units are S.I. units (second, meters, Newtons, ...)
If the header above contains a line with 'inDegrees', this indicates whether rotational values are in degrees (yes) or radians (no).

endheader
time	pelvis_tilt	pelvis_list	pelvis_rotation	pelvis_tx	pelvis_ty	pelvis_tz	hip_flexion_r	hip_adduction_r	hip_rotation_r	knee_angle_r	knee_angle_r_beta	ankle_angle_r	subtalar_angle_r	mtp_angle_r	hip_flexion_l	hip_adduction_l	hip_rotation_l	knee_angle_l	knee_angle_l_beta	ankle_angle_l	subtalar_angle_l	mtp_angle_l	L5_S1_Flex_Ext	L5_S1_Lat_Bending	L5_S1_axial_rotation	L4_L5_Flex_Ext	L4_L5_Lat_Bending	L4_L5_axial_rotation	L3_L4_Flex_Ext	L3_L4_Lat_Bending	L3_L4_axial_rotation	L2_L3_Flex_Ext	L2_L3_Lat_Bending	L2_L3_axial_rotation	L1_L2_Flex_Ext	L1_L2_Lat_Bending	L1_L2_axial_rotation	L1_T12_Flex_Ext	L1_T12_Lat_Bending	L1_T12_axial_rotation	Abs_r3	Abs_r2	Abs_r1	Abs_t1	Abs_t2	neck_flexion	neck_bending	neck_rotation	arm_flex_r	arm_add_r	arm_rot_r	elbow_flex_r	pro_sup_r	wrist_flex_r	wrist_dev_r	arm_flex_l	arm_add_l	arm_rot_l	elbow_flex_l	pro_sup_l	wrist_flex_l	wrist_dev_l
      0.00000000	      1.81604846	     -0.93400139	     95.41665662	      0.28041720	      0.76415901	      0.62813247	     -4.04720200	      2.49084388	     12.79316115	      0.81784180	      0.01427403	     23.87549993	    -13.68914448	      0.00000000	     -0.12788162	     -3.24388386	     22.80804806	      3.17772549	      0.05546177	     27.69349379	    -13.60249309	      0.00000000	      0.44881813	     -0.13516767	     -0.96526830	      0.83350015	     -0.17977301	     -1.02559757	      0.73736331	     -0.32864668	     -1.02559757	      0.51295424	     -0.32864668	     -0.84460977	      0.41677252	     -0.27563392	     -0.78428050	      0.25645468	     -0.20937473	     -0.72395123	      3.20586302	     -1.52904377	     -5.36853273	      0.00000000	      0.00000000	     11.10926640	      9.84379240	     -7.66849046	     18.96935696	    -14.12148609	     77.47147761	     57.58592691	     84.91416876	      0.53088408	     -4.19545768	     16.99410548	    -17.55278502	     69.62000512	     57.78411906	     59.68280191	      4.65281158	     -6.58811813
      0.01694915	      2.27070664	     -0.92555645	     95.57882302	      0.27893032	      0.76401262	      0.62858078	     -3.85568693	      2.86940710	     13.34679950	      0.70040049	      0.01222429	     24.63756584	    -13.90964374	      0.00000000	     -0.00181724	     -3.70083327	     22.66656274	      2.93987924	      0.05131057	     28.30230544	    -13.25793798	      0.00000000	      0.42729515	     -0.04604589	     -1.02422174	      0.79352982	     -0.06124103	     -1.08823560	      0.70200320	     -0.11195598	     -1.08823560	      0.48835563	     -0.11195598	     -0.89619402	      0.39678628	     -0.09389678	     -0.83218016	      0.24415645	     -0.07132508	     -0.76816631	      3.05212652	     -0.52088032	     -5.69641405	      0.00000000	      0.00000000	     11.60248412	      9.41267051	     -6.18076442	     18.24074015	    -14.75922429	     76.12036178	     57.97442831	     85.03056417	      2.48707515	     -2.72606203	     16.48776008	    -17.09372236	     69.42811979	     57.74969642	     58.93599586	      6.00644310	     -4.85146530
      0.03389831	      2.55981643	     -0.88086011	     95.78520936	      0.27772576	      0.76392829	      0.62889539	     -3.77444471	      3.10635906	     13.60089451	      0.64050131	      0.01117886	     25.14228517	    -14.05522625	      0.00000000	      0.07310958	     -3.99405299	     22.57027911	      2.81976573	      0.04921420	     28.69545522	    -12.85024832	      0.00000000	      0.40220629	      0.00840459	     -1.06441566	      0.74693730	      0.01117810	     -1.13094164	      0.66078471	      0.02043491	     -1.13094164	      0.45968157	      0.02043491	     -0.93136371	      0.37348876	      0.01713864	     -0.86483773	      0.22982067	      0.01301871	     -0.79831175	      2.87291931	      0.09507438	     -5.91996059	      0.00000000	      0.00000000	     11.99511481	      9.31213585	     -5.29873979	     17.63616683	    -15.21454181	     75.12554842	     58.21038338	     84.65439088	      3.41632131	     -1.90953236	     16.16667591	    -16.87286617	     69.26815452	     57.87225856	     58.86417355	      6.80125222	     -3.60918201
      0.05084746	      2.62839742	     -0.95118240	     96.05655386	      0.27712612	      0.76376011	      0.62940100	     -3.57969079	      3.14164437	     11.12749465	      0.67546695	      0.01178912	     26.41214840	    -10.63459367	      0.00000000	      0.39023462	     -4.08201696	     20.61835232	      3.04070140	      0.05307025	     29.58640092	     -9.76080860	      0.00000000	      0.39271861	      0.01701835	     -1.10511640	      0.72931774	      0.02263440	     -1.17418618	      0.64519741	      0.04137841	     -1.17418618	      0.44883810	      0.04137841	     -0.96697685	      0.36467851	      0.03470381	     -0.89790708	      0.22439942	      0.02636142	     -0.82883730	      2.80514979	      0.19251494	     -6.14632588	      0.00000000	      0.00000000	     12.28321998	      9.49002926	     -5.05230286	     17.15239304	    -15.34866388	     74.39991956	     58.16073807	     83.79289384	      4.13864462	     -1.77532374	     15.80912643	    -16.90132161	     68.57440163	     57.88427595	     60.55725445	      8.02626505	     -3.35703182
      0.06779661	      2.72225552	     -0.89514107	     96.07031689	      0.27663097	      0.76357618	      0.62965784	     -3.61029990	      3.22857506	     13.53343778	      0.59862424	      0.01044796	     25.70080867	    -14.08053739	      0.00000000	      0.37459751	     -4.16537251	     21.00521392	      3.03179051	      0.05291473	     29.49803177	    -10.24063108	      0.00000000	      0.36826938	      0.03893359	     -1.12026621	      0.68391307	      0.05178168	     -1.19028285	      0.60502977	      0.09466314	     -1.19028285	      0.42089508	      0.09466314	     -0.98023293	      0.34197495	      0.07939338	     -0.91021629	      0.21042913	      0.06030814	     -0.84019966	      2.63051139	      0.44042460	     -6.23058457	      0.00000000	      0.00000000	     12.55457467	      9.35911057	     -4.61447521	     17.11095847	    -15.65980583	     74.62092315	     58.50117714	     81.87159873	      3.73486273	     -1.24591442	     15.38141545	    -17.04132871	     67.77178272	     58.48382579	     61.28885756	      7.77672705	     -2.38523020
      0.08474576	      2.69201183	     -0.90413899	     96.12420987	      0.27639840	      0.76343281	      0.63003316	     -3.56559001	      3.18259866	     13.49836384	      0.59118793	      0.01031818	     25.79220682	    -14.10009526	      0.00000000	      0.52104492	     -4.13828705	     19.80093362	      3.26861080	      0.05704802	     29.90802827	     -8.42424567	      0.00000000	      0.35448356	      0.03472879	     -1.12432322	      0.65831141	      0.04618929	     -1.19459342	      0.58238103	      0.08443957	     -1.19459342	      0.40513926	      0.08443957	     -0.98378282	      0.32917343	      0.07081894	     -0.91351261	      0.20255190	      0.05379489	     -0.84324241	      2.53204059	      0.39285898	     -6.25314844	      0.00000000	      0.00000000	     12.75229119	      9.52138044	     -4.56327278	     17.10257294	    -15.78190927	     74.91604181	     58.56523313	     79.80694196	      3.28109431	     -1.49303882	     15.06860722	    -17.21610798	     66.98233274	     58.79084020	     62.89887007	      7.92357445	     -2.33130359
      0.10169492	      2.73017299	     -0.90378992	     96.14046952	      0.27605968	      0.76332678	      0.63013431	     -3.53190883	      3.19827204	     13.28905311	      0.58335601	      0.01018148	     26.03258287	    -13.69969260	      0.00000000	      0.48140778	     -4.16337221	     20.67946079	      3.16531662	      0.05524520	     29.53380981	     -9.50546909	      0.00000000	      0.34779113	      0.04512226	     -1.12682046	      0.64588291	      0.06001260	     -1.19724674	      0.57138605	      0.10971025	     -1.19724674	      0.39749049	      0.10971025	     -0.98596790	      0.32295885	      0.09201331	     -0.91554162	      0.19872785	      0.06989438	     -0.84511535	      2.48423729	      0.51043199	     -6.26703736	      0.00000000	      0.00000000	     12.87244144	      9.46549790	     -4.38954486	     17.21936119	    -15.99114853	     75.54665170	     58.72526676	     77.16431258	      2.68553195	     -1.78075429	     14.58981703	    -17.19544593	     65.82298583	     58.96671776	     65.29246309	      7.96758360	     -2.47488895
